<?xml version="1.0" encoding="UTF-8" standalone="no"?>
<svg
   xmlns:dc="http://purl.org/dc/elements/1.1/"
   xmlns:cc="http://creativecommons.org/ns#"
   xmlns:rdf="http://www.w3.org/1999/02/22-rdf-syntax-ns#"
   xmlns:svg="http://www.w3.org/2000/svg"
   xmlns="http://www.w3.org/2000/svg"
   xmlns:sodipodi="http://sodipodi.sourceforge.net/DTD/sodipodi-0.dtd"
   xmlns:inkscape="http://www.inkscape.org/namespaces/inkscape"
   version="1.1"
   width="24"
   height="24"
   viewBox="0 0 24 24"
   id="svg2"
   inkscape:version="0.91 r13725"
   sodipodi:docname="menu.svg">
  <metadata
     id="metadata10">
    <rdf:RDF>
      <cc:Work
         rdf:about="">
        <dc:format>image/svg+xml</dc:format>
        <dc:type
           rdf:resource="http://purl.org/dc/dcmitype/StillImage" />
      </cc:Work>
    </rdf:RDF>
  </metadata>
  <defs
     id="defs8" />
  <sodipodi:namedview
     pagecolor="#ffffff"
     bordercolor="#666666"
     borderopacity="1"
     objecttolerance="10"
     gridtolerance="10"
     guidetolerance="10"
     inkscape:pageopacity="0"
     inkscape:pageshadow="2"
     inkscape:window-width="2560"
     inkscape:window-height="1057"
     id="namedview6"
     showgrid="false"
     inkscape:zoom="9.8333333"
     inkscape:cx="12"
     inkscape:cy="12"
     inkscape:window-x="-8"
     inkscape:window-y="-8"
     inkscape:window-maximized="1"
     inkscape:current-layer="svg2" />
  <path
     d="M3,6H21V8H3V6M3,11H21V13H3V11M3,16H21V18H3V16Z"
     id="path4" />
  <path
     style="fill:#ffffff;stroke:none;stroke-width:1px;stroke-linecap:butt;stroke-linejoin:miter;stroke-opacity:1"
     d="M 3.0508475,6.9661017 3.0508475,6 12,6 l 8.949153,0 0,0.9661017 0,0.9661017 -8.949153,0 -8.9491525,0 0,-0.9661017 z"
     id="path3338"
     inkscape:connector-curvature="0" />
  <path
     style="fill:#ffffff"
     d="m 3.0508475,12 0,-0.915254 8.9491525,0 8.949153,0 0,0.915254 0,0.915254 -8.949153,0 -8.9491525,0 0,-0.915254 z"
     id="path3340"
     inkscape:connector-curvature="0" />
  <path
     style="fill:#ffffff"
     d="m 3.0508475,17.033898 0,-0.966101 8.9491525,0 8.949153,0 0,0.966101 0,0.966102 L 12,18 l -8.9491525,0 0,-0.966102 z"
     id="path3342"
     inkscape:connector-curvature="0" />
</svg>
