<?xml version="1.0" standalone="no"?>
<!DOCTYPE svg PUBLIC "-//W3C//DTD SVG 20010904//EN"
 "http://www.w3.org/TR/2001/REC-SVG-20010904/DTD/svg10.dtd">
<svg version="1.0" xmlns="http://www.w3.org/2000/svg"
 width="540.000000pt" height="1100.000000pt" viewBox="0 0 540.000000 1100.000000"
 preserveAspectRatio="xMidYMid meet">
<metadata>
Created by potrace 1.12, written by Peter Selinger 2001-2015
</metadata>
<g transform="translate(0.000000,1100.000000) scale(0.100000,-0.100000)"
fill="#000000" stroke="none">
<path d="M1754 10866 c-10 -25 2 -210 18 -267 9 -34 13 -80 10 -119 -6 -89 15
-224 46 -290 27 -59 78 -120 99 -120 7 0 13 -4 13 -10 0 -11 64 -30 102 -30
14 0 39 -6 55 -14 30 -16 117 -32 225 -42 55 -5 70 -10 82 -29 16 -24 12 -89
-6 -112 -19 -24 -70 -42 -139 -49 -38 -4 -72 -11 -75 -15 -3 -5 -14 -9 -24 -9
-65 0 -260 -159 -300 -245 -35 -76 -35 -76 -219 -67 -90 4 -165 4 -168 0 -2
-5 -26 -8 -53 -8 -27 0 -52 -4 -55 -10 -3 -5 -17 -10 -31 -10 -57 0 -185 -109
-220 -187 -21 -47 -43 -121 -44 -149 0 -11 -14 -33 -31 -50 l-31 -29 6 -97 c4
-70 12 -109 27 -137 22 -43 20 -86 -7 -128 -8 -12 -14 -33 -14 -47 0 -14 -4
-28 -10 -31 -5 -3 -10 -19 -10 -34 0 -16 -7 -34 -15 -41 -8 -7 -15 -21 -15
-31 0 -27 -21 -110 -35 -139 -6 -14 -17 -52 -24 -85 -7 -33 -17 -69 -21 -80
-22 -59 -40 -123 -40 -142 0 -12 -4 -24 -9 -27 -4 -3 -11 -28 -15 -56 -4 -27
-10 -50 -15 -50 -8 0 -13 -22 -28 -120 -3 -19 -12 -44 -19 -55 -8 -11 -14 -27
-14 -37 0 -25 -12 -22 -40 7 -26 28 -97 65 -123 65 -24 0 -38 -40 -48 -135 -5
-44 -12 -93 -15 -110 -15 -80 -24 -323 -29 -770 -6 -489 -10 -540 -41 -528 -8
3 -15 -7 -18 -29 -5 -35 -14 -84 -22 -134 -5 -28 -1 -36 40 -69 l45 -38 -20
-28 c-10 -15 -19 -31 -19 -37 0 -5 -7 -15 -15 -22 -8 -7 -15 -21 -15 -31 0
-11 -4 -19 -10 -19 -5 0 -10 -9 -10 -19 0 -11 -4 -23 -10 -26 -5 -3 -10 -17
-10 -29 0 -13 -7 -37 -15 -52 -8 -16 -15 -46 -15 -66 0 -20 -5 -40 -10 -43
-14 -9 -13 -81 2 -105 12 -19 10 -27 -23 -92 -15 -29 -10 -132 7 -167 11 -21
25 -34 45 -38 16 -3 29 -9 29 -14 0 -5 8 -9 18 -9 15 0 180 -74 222 -100 8 -5
44 -23 79 -40 55 -26 79 -32 160 -35 53 -2 129 -12 169 -21 57 -13 78 -15 98
-6 14 7 34 12 45 12 22 0 109 76 109 95 0 22 42 42 102 49 32 3 74 15 94 27
36 20 73 56 74 72 0 4 11 25 25 47 21 33 25 52 25 115 0 43 -4 75 -10 75 -5 0
-10 4 -10 10 0 5 -22 31 -50 57 -27 26 -50 55 -50 66 0 22 -42 99 -70 129 -11
12 -20 27 -20 32 0 6 -11 23 -25 38 -14 15 -25 31 -25 36 0 5 -7 15 -15 22
-21 18 -19 38 9 63 21 20 61 94 81 152 17 51 27 134 33 305 5 102 12 192 17
200 12 18 34 98 35 123 0 11 6 33 14 50 8 18 17 52 20 77 11 99 26 186 35 205
10 20 13 51 31 365 11 196 9 220 -21 220 -27 0 -34 24 -14 54 9 14 18 31 19
38 11 52 50 128 70 134 21 7 55 -25 121 -112 16 -21 56 -65 88 -96 53 -53 73
-65 147 -95 18 -8 29 -23 38 -59 8 -27 20 -62 27 -79 7 -16 18 -48 25 -70 12
-44 24 -73 47 -122 14 -29 14 -35 -1 -67 -9 -19 -16 -42 -16 -51 0 -10 -19
-41 -43 -69 -50 -59 -92 -142 -102 -203 -4 -24 -10 -43 -14 -43 -33 0 -32
-596 0 -616 5 -3 9 -12 9 -21 0 -8 18 -37 39 -64 36 -45 38 -52 30 -86 -5 -21
-9 -66 -9 -100 0 -34 -5 -65 -10 -68 -6 -4 -8 -10 -5 -15 3 -5 2 -18 -4 -27
-5 -10 -11 -52 -14 -93 -11 -148 -26 -272 -35 -283 -5 -7 -13 -52 -17 -102
-17 -213 -44 -445 -55 -466 -6 -10 -10 -43 -10 -73 0 -54 -1 -56 -35 -70 -19
-8 -56 -18 -82 -22 -52 -8 -100 -31 -134 -65 -24 -24 -78 -186 -86 -256 -3
-24 -8 -43 -13 -43 -4 0 -10 -22 -14 -50 -4 -27 -11 -52 -16 -55 -6 -3 -10
-26 -10 -50 0 -24 -4 -47 -10 -50 -5 -3 -10 -21 -10 -39 0 -17 -5 -37 -10 -42
-10 -10 -24 -73 -37 -164 -3 -25 -9 -49 -13 -55 -5 -5 -11 -37 -15 -70 -4 -33
-11 -64 -15 -70 -7 -9 -10 -26 -26 -140 -3 -22 -8 -47 -11 -55 -13 -32 -22
-77 -42 -206 -5 -34 -14 -70 -19 -80 -6 -10 -18 -71 -27 -134 -10 -63 -21
-119 -25 -125 -5 -5 -8 -27 -8 -47 0 -20 -3 -42 -7 -48 -4 -6 -11 -39 -16 -73
-17 -127 -30 -203 -39 -222 -8 -19 -14 -54 -26 -170 -3 -27 -12 -64 -20 -82
-20 -44 -17 -90 6 -120 25 -33 25 -59 0 -75 -18 -12 -20 -24 -20 -119 0 -97 2
-107 23 -127 13 -12 28 -22 34 -22 25 0 26 -94 2 -125 -4 -6 -10 -28 -13 -50
-11 -81 -18 -111 -32 -142 -16 -36 -19 -149 -4 -158 21 -13 10 -56 -21 -82
-43 -37 -103 -127 -154 -233 -15 -30 -31 -62 -36 -70 -5 -8 -12 -22 -15 -30
-3 -8 -12 -28 -19 -45 -6 -16 -18 -46 -25 -65 -7 -19 -17 -39 -22 -44 -4 -6
-8 -22 -8 -37 0 -15 -5 -31 -10 -34 -6 -3 -10 -16 -10 -28 -1 -12 -7 -39 -14
-60 -12 -33 -12 -42 1 -68 34 -68 115 -81 563 -90 790 -18 1143 -20 1153 -10
6 6 33 11 59 11 26 0 48 4 48 9 0 5 13 11 29 14 16 4 46 23 66 43 l36 36 -4
116 c-4 126 -9 155 -37 217 -10 22 -21 47 -24 55 -9 20 -26 49 -52 85 -27 39
-53 96 -60 132 -4 21 0 33 15 47 12 11 21 27 21 38 0 10 5 18 10 18 6 0 10 13
10 29 0 17 5 33 10 36 6 4 8 10 5 15 -3 5 -1 11 5 15 6 4 10 58 10 133 0 109
3 132 20 160 13 21 20 50 20 82 0 27 5 61 11 77 10 26 15 65 38 340 5 62 13
118 18 125 4 7 11 56 14 108 14 208 30 364 38 374 5 6 11 56 15 111 12 191 42
530 52 580 3 17 9 77 14 135 5 58 14 152 20 210 5 58 10 119 10 136 0 17 5 44
12 60 11 27 12 23 19 -56 3 -47 7 -165 8 -264 1 -98 6 -187 12 -197 5 -10 14
-114 20 -231 6 -117 15 -283 20 -368 14 -217 14 -263 0 -360 -13 -87 -30 -258
-31 -297 0 -12 -5 -25 -10 -28 -13 -8 -13 -262 -1 -270 5 -3 13 -20 17 -37 7
-33 28 -68 108 -182 13 -19 16 -30 8 -38 -6 -6 -8 -17 -5 -25 3 -8 0 -25 -7
-37 -15 -30 -6 -204 13 -222 4 -4 7 -22 7 -41 0 -32 3 -41 28 -90 19 -35 15
-52 -23 -96 -19 -22 -43 -58 -52 -79 -9 -21 -20 -38 -25 -38 -4 0 -8 -6 -8
-13 0 -8 -11 -36 -25 -63 -14 -27 -25 -59 -25 -71 0 -13 -4 -23 -10 -23 -5 0
-10 -19 -10 -41 0 -43 19 -68 50 -69 8 0 28 -7 44 -15 15 -8 40 -15 55 -15 40
0 105 -23 126 -43 16 -16 33 -18 129 -17 121 2 315 -17 331 -31 13 -13 890
-12 913 1 9 5 98 14 197 20 244 14 314 23 326 40 15 23 5 227 -13 248 -8 9
-20 31 -27 47 -7 17 -17 37 -21 45 -4 9 -11 30 -14 48 -4 17 -12 34 -17 37 -5
4 -9 15 -9 27 0 11 -16 49 -35 85 -19 36 -35 69 -35 74 0 5 -18 35 -40 66 -22
32 -40 62 -40 66 0 13 -78 108 -155 188 l-72 75 -5 163 c-3 101 -10 167 -17
174 -6 6 -11 20 -11 30 0 10 -6 31 -14 45 -16 30 -27 59 -32 81 -1 8 -9 18
-16 22 -10 7 -10 11 0 21 16 16 16 186 0 225 -11 27 -20 88 -34 238 -4 39 -10
75 -15 80 -4 6 -8 20 -8 30 -1 11 -5 52 -11 90 -16 113 -31 225 -40 300 -5 39
-13 97 -19 130 -23 123 -31 183 -31 222 0 21 -4 43 -10 49 -9 9 -23 109 -37
264 -3 36 -9 70 -13 75 -9 11 -39 231 -56 410 -4 39 -10 75 -15 81 -9 11 -26
137 -35 259 -3 33 -9 69 -14 80 -5 11 -13 42 -17 68 -10 58 -31 73 -116 82
-71 8 -77 19 -77 136 0 44 -4 88 -10 98 -5 10 -14 83 -21 162 -6 79 -15 194
-20 254 -5 61 -11 126 -14 145 -22 144 -17 240 12 240 24 0 72 58 78 94 7 36
-12 525 -21 574 -4 20 -2 32 5 32 6 0 11 -9 11 -20 0 -11 5 -20 10 -20 6 0 10
-10 10 -23 0 -13 7 -32 15 -43 8 -10 15 -28 15 -39 0 -11 11 -40 25 -64 14
-23 25 -52 25 -62 0 -11 4 -27 9 -37 5 -9 17 -35 26 -57 9 -22 20 -48 25 -57
6 -10 10 -23 10 -30 0 -13 40 -118 70 -184 11 -23 22 -55 26 -70 4 -16 10 -33
14 -39 4 -5 10 -33 12 -61 6 -67 41 -105 104 -112 l44 -5 0 -101 c0 -100 -1
-103 -30 -131 -59 -56 -70 -93 -70 -228 l0 -123 48 -47 c43 -43 54 -48 98 -51
54 -3 101 12 123 37 19 24 62 21 91 -5 14 -13 39 -29 55 -37 17 -7 42 -20 57
-27 33 -18 42 -18 86 2 21 9 46 20 57 24 63 25 95 42 95 50 0 6 7 10 16 10 9
0 47 30 85 68 l69 67 0 99 c0 90 2 101 25 128 29 34 31 54 10 94 -8 16 -15 37
-15 46 0 27 -26 119 -48 168 -22 49 -74 104 -109 115 -32 9 -29 38 8 74 28 29
30 35 25 79 -3 26 -9 76 -12 112 -3 36 -10 70 -15 76 -4 6 -11 37 -14 70 -9
94 -27 164 -42 164 -9 0 -13 -13 -13 -40 0 -51 -15 -52 -23 -2 -13 75 -27 135
-36 146 -5 6 -11 27 -14 46 -14 87 -27 143 -35 153 -5 7 -12 28 -15 47 -13 79
-24 126 -34 145 -6 11 -13 36 -17 55 -10 58 -23 112 -41 175 -19 66 -32 124
-44 198 -4 26 -13 53 -19 59 -7 7 -12 24 -12 39 0 34 -23 59 -49 52 -10 -2
-36 -22 -57 -44 -21 -21 -43 -39 -50 -39 -6 0 -14 21 -18 48 -13 104 -23 151
-33 164 -6 7 -13 33 -16 58 -6 49 -21 131 -31 170 -4 14 -9 41 -12 60 -3 19
-9 44 -14 55 -5 11 -11 38 -14 60 -16 113 -19 131 -27 140 -4 6 -12 38 -17 70
-9 52 -7 63 9 87 11 14 19 29 19 33 0 4 9 18 20 32 23 30 27 104 9 199 -22
116 -105 239 -194 288 -87 48 -89 51 -97 102 -5 27 -13 57 -18 66 -6 10 -10
23 -10 29 0 25 -59 145 -82 166 -10 9 -18 20 -18 25 0 11 -78 88 -89 88 -5 0
-15 7 -22 16 -7 9 -22 20 -34 25 -11 5 -27 13 -35 18 -8 5 -33 17 -55 26 -22
9 -49 20 -60 25 -37 16 -174 33 -217 26 -24 -3 -81 -9 -128 -12 -47 -4 -91
-11 -97 -16 -7 -6 -13 -7 -13 -3 0 4 -7 2 -15 -5 -25 -20 -45 5 -45 57 0 32 4
45 18 50 9 4 20 11 24 17 11 16 10 84 -2 91 -5 3 -10 17 -10 31 0 13 -4 32 -9
42 -18 32 -41 121 -41 154 0 59 20 75 102 82 110 10 200 26 231 42 16 8 44 14
62 14 19 0 37 5 40 10 3 6 15 10 26 10 25 0 112 86 132 131 31 70 37 105 37
221 0 82 5 130 14 151 26 59 44 255 26 297 -18 43 -57 41 -87 -5 -13 -19 -23
-38 -23 -43 0 -11 -134 -142 -146 -142 -6 0 -21 -11 -34 -25 -13 -14 -31 -25
-41 -25 -10 0 -21 -4 -24 -10 -3 -5 -19 -10 -35 -10 -15 0 -30 -4 -32 -10 -1
-5 -54 -17 -116 -26 -109 -16 -116 -16 -152 2 -39 19 -80 80 -80 119 0 10 -7
26 -16 36 -12 14 -22 15 -47 8 -57 -16 -142 -11 -160 9 -10 10 -17 23 -17 28
0 13 -63 74 -76 74 -6 0 -36 -27 -68 -60 -54 -57 -61 -60 -104 -60 -26 0 -61
4 -79 9 -36 11 -63 -10 -63 -48 0 -30 -46 -101 -66 -101 -4 0 -15 -7 -25 -16
-16 -14 -29 -15 -126 -3 -59 7 -117 19 -128 26 -11 7 -26 13 -35 13 -8 0 -44
14 -79 32 -67 33 -221 173 -221 200 0 39 -83 77 -96 44z m2256 -3244 c0 -10 6
-24 12 -30 18 -18 18 -254 1 -259 -9 -3 -13 -28 -13 -79 l0 -74 -59 6 -59 7
-8 -59 -7 -58 -23 29 c-22 28 -24 59 -5 90 3 6 6 12 7 15 0 3 3 12 7 20 5 14
10 38 24 120 3 19 12 44 19 55 7 11 15 43 18 70 11 98 18 130 34 148 20 23 52
22 52 -1z m-974 -2477 c3 -71 10 -143 14 -160 5 -16 9 -86 10 -154 0 -69 4
-130 9 -135 5 -6 11 -37 13 -69 4 -45 10 -63 32 -86 22 -23 27 -36 24 -67 -3
-33 -7 -39 -33 -45 -16 -4 -44 -14 -62 -23 -26 -14 -35 -15 -52 -4 -22 13 -44
55 -36 68 3 5 1 11 -5 15 -5 3 -10 45 -10 93 0 57 -5 97 -15 115 -9 18 -13 44
-10 70 3 23 7 62 10 87 10 103 26 213 32 224 7 10 15 69 29 211 3 33 8 67 11
75 12 32 34 -90 39 -215z"/>
</g>
</svg>
